# xmcd
#
# Track frame offsets: 
#        150
#        9526
#        21844
#        34515
#        45942
#        60535
#        73550
#        87085
#        100515
#        112431
#        124735
#        137446
#        146175
#        156201
#        168790
#        181637
#        192142
#        205513
#        216603
#        227828
#        238800
#        249720
#        263263
#        273901
#        285409
#
# Disc length: 3964 seconds
#
# Revision: 0
# Processed by: cddbd v1.5.2PL0 Copyright (c) Steve Scherf et al.
# Submitted via: ExactAudioCopyFreeDBPlugin 1.0
#
DISCID=530f7a19
DTITLE=Various Artist - The Grand Ole Opry Story - CD2
DYEAR=2014
DGENRE=Country
TTITLE0=Red Foley - Shame On You (1945)
TTITLE1=Grandpa Jones - Eight More Miles To Louisville (1946)
TTITLE2=Eddy Arnold - What Is Life Without love (1947)
TTITLE3=Wally Fowler and The Oak Ridge Boys - Mountain Boogie (1948)
TTITLE4=Minne Pearl with Pee Wee King - On Top Of Old Smoky (1946)
TTITLE5=Oklahoma Wranglers (The Wills Brothers) - I'm Sorry If That's 
TTITLE5=The Way You Feel (1947)
TTITLE6=Lonzo and Oscar - I'm My Own Grandpa (1947)
TTITLE7=Pee Wee King - Tennessee Waltz (1948)
TTITLE8=Leon Payne - Lost Highway (1948)
TTITLE9=Hank Williams - Lovesick Blues (1949)
TTITLE10=Little Jimmy Dickens - take An Old Cold 'Tater And Wait (1949
TTITLE10=)
TTITLE11=George Morgan - Candy Kisses (1949)
TTITLE12=Moon Mullican - I'll Sail My Ship Alone (1949) 
TTITLE13=The Carter Sisters and Mother Maybelle - Little Orphan Girl (19
TTITLE13=50)
TTITLE14=Hank Snow - I'm Moving On (1950)
TTITLE15=Johnnie and Jack - Poison Love (1950)
TTITLE16=Lefty Frizzell - If You've Got The Money I've Got The Time (1
TTITLE16=950)
TTITLE17=Bradley Kincaid - The Legend Of The Robin Redbreast (1950)
TTITLE18=Jim Boyd and The Sons Of The West - Waxahachie Boogie Woogie Di
TTITLE18=shwsasher Boy (1950)
TTITLE19=Del Wood - Down Yonder (1951)
TTITLE20=Carl Smith - (When You Feel Like You're In Love) Don't Just S
TTITLE20=tand There (1952)
TTITLE21=Ray Price - Weary Blues (1951)
TTITLE22=Martha Carson - Satisfied (1951)
TTITLE23=Kitty Wells - It Wasn't God Who Made Honky Tonk Angels (1952)
TTITLE24=Marty Robbins - I'll Go On Alone
EXTD=
EXTT0=
EXTT1=
EXTT2=
EXTT3=
EXTT4=
EXTT5=
EXTT6=
EXTT7=
EXTT8=
EXTT9=
EXTT10=
EXTT11=
EXTT12=
EXTT13=
EXTT14=
EXTT15=
EXTT16=
EXTT17=
EXTT18=
EXTT19=
EXTT20=
EXTT21=
EXTT22=
EXTT23=
EXTT24=
PLAYORDER=
